<svg width="69" height="69" viewBox="0 0 69 69" fill="none" xmlns="http://www.w3.org/2000/svg">
<path d="M0.5 4.75C0.5 3.62283 0.947766 2.54183 1.7448 1.7448C2.54183 0.947766 3.62283 0.5 4.75 0.5C5.87717 0.5 6.95817 0.947766 7.7552 1.7448C8.55223 2.54183 9 3.62283 9 4.75H64.25C65.3772 4.75 66.4582 5.19777 67.2552 5.9948C68.0522 6.79183 68.5 7.87283 68.5 9C68.5 10.1272 68.0522 11.2082 67.2552 12.0052C66.4582 12.8022 65.3772 13.25 64.25 13.25H9V66.375C9 66.9386 8.77612 67.4791 8.3776 67.8776C7.97909 68.2761 7.43859 68.5 6.875 68.5H2.625C2.06141 68.5 1.52091 68.2761 1.1224 67.8776C0.723884 67.4791 0.5 66.9386 0.5 66.375V4.75ZM13.25 19.625C13.25 19.0614 13.4739 18.5209 13.8724 18.1224C14.2709 17.7239 14.8114 17.5 15.375 17.5H62.125C62.6886 17.5 63.2291 17.7239 63.6276 18.1224C64.0261 18.5209 64.25 19.0614 64.25 19.625V49.375C64.25 52.1929 63.1306 54.8954 61.138 56.888C59.1454 58.8806 56.4429 60 53.625 60H23.875C21.0571 60 18.3546 58.8806 16.362 56.888C14.3694 54.8954 13.25 52.1929 13.25 49.375V19.625ZM26 49.375C26 49.9386 26.2239 50.4791 26.6224 50.8776C27.0209 51.2761 27.5614 51.5 28.125 51.5H32.375C32.9386 51.5 33.4791 51.2761 33.8776 50.8776C34.2761 50.4791 34.5 49.9386 34.5 49.375V45.125C34.5 44.5614 34.7239 44.0209 35.1224 43.6224C35.5209 43.2239 36.0614 43 36.625 43H40.875C41.4386 43 41.9791 43.2239 42.3776 43.6224C42.7761 44.0209 43 44.5614 43 45.125V49.375C43 49.9386 43.2239 50.4791 43.6224 50.8776C44.0209 51.2761 44.5614 51.5 45.125 51.5H49.375C49.9386 51.5 50.4791 51.2761 50.8776 50.8776C51.2761 50.4791 51.5 49.9386 51.5 49.375V38.5375C51.5002 37.9368 51.373 37.3429 51.1268 36.7949C50.8807 36.2469 50.5212 35.7574 50.072 35.3585L40.161 26.5525C39.7721 26.2072 39.2701 26.0164 38.75 26.0164C38.2299 26.0164 37.7279 26.2072 37.339 26.5525L27.428 35.35C26.9778 35.7498 26.6176 36.2408 26.3714 36.7903C26.1252 37.3398 25.9986 37.9354 26 38.5375V49.375Z" fill="white"/>
</svg>
