<svg width="81" height="72" viewBox="0 0 81 72" fill="none" xmlns="http://www.w3.org/2000/svg">
<g clip-path="url(#clip0_28_189)">
<path d="M18 0C13.0359 0 9 4.03594 9 9V63C9 67.9641 13.0359 72 18 72H24.75V56.25C24.75 51.2859 28.7859 47.25 33.75 47.25H63V9C63 4.03594 58.9641 0 54 0H18ZM22.5 15.75C22.5 14.5125 23.5125 13.5 24.75 13.5H29.25C30.4875 13.5 31.5 14.5125 31.5 15.75V20.25C31.5 21.4875 30.4875 22.5 29.25 22.5H24.75C23.5125 22.5 22.5 21.4875 22.5 20.25V15.75ZM42.75 13.5H47.25C48.4875 13.5 49.5 14.5125 49.5 15.75V20.25C49.5 21.4875 48.4875 22.5 47.25 22.5H42.75C41.5125 22.5 40.5 21.4875 40.5 20.25V15.75C40.5 14.5125 41.5125 13.5 42.75 13.5ZM22.5 33.75C22.5 32.5125 23.5125 31.5 24.75 31.5H29.25C30.4875 31.5 31.5 32.5125 31.5 33.75V38.25C31.5 39.4875 30.4875 40.5 29.25 40.5H24.75C23.5125 40.5 22.5 39.4875 22.5 38.25V33.75ZM42.75 31.5H47.25C48.4875 31.5 49.5 32.5125 49.5 33.75V38.25C49.5 39.4875 48.4875 40.5 47.25 40.5H42.75C41.5125 40.5 40.5 39.4875 40.5 38.25V33.75C40.5 32.5125 41.5125 31.5 42.75 31.5ZM73.125 53.4375C69.7078 53.4375 66.9375 56.2078 66.9375 59.625V70.875C66.9375 74.2922 69.7078 77.0625 73.125 77.0625H75.375C78.7922 77.0625 81.5625 74.2922 81.5625 70.875V59.625C81.5625 56.2078 78.7922 53.4375 75.375 53.4375H73.125ZM72.5625 59.625C72.5625 59.3156 72.8156 59.0625 73.125 59.0625H75.375C75.6844 59.0625 75.9375 59.3156 75.9375 59.625V70.875C75.9375 71.1844 75.6844 71.4375 75.375 71.4375H73.125C72.8156 71.4375 72.5625 71.1844 72.5625 70.875V59.625ZM48.9375 59.625V70.875C48.9375 74.2922 51.7078 77.0625 55.125 77.0625H57.375C60.7922 77.0625 63.5625 74.2922 63.5625 70.875V67.5C63.5625 65.9531 62.2969 64.6875 60.75 64.6875H59.625C58.0781 64.6875 56.8125 65.9531 56.8125 67.5C56.8125 68.4141 57.2484 69.2438 57.9375 69.75V70.875C57.9375 71.1844 57.6844 71.4375 57.375 71.4375H55.125C54.8156 71.4375 54.5625 71.1844 54.5625 70.875V59.625C54.5625 59.3156 54.8156 59.0625 55.125 59.0625H57.9937C58.2609 60.3422 59.3859 61.3125 60.75 61.3125C62.2969 61.3125 63.5625 60.0469 63.5625 58.5C63.5625 55.7016 61.2984 53.4375 58.5 53.4375H55.125C51.7078 53.4375 48.9375 56.2078 48.9375 59.625ZM36.2672 54.9984C35.6906 53.8312 34.3687 53.2125 33.1031 53.5219C31.8375 53.8312 30.9375 54.9422 30.9375 56.25V74.25C30.9375 75.7969 32.2031 77.0625 33.75 77.0625C35.2969 77.0625 36.5625 75.7969 36.5625 74.25V68.1609L40.2328 75.5016C40.8094 76.6688 42.1313 77.2875 43.3969 76.9781C44.6625 76.6688 45.5625 75.5578 45.5625 74.25V56.25C45.5625 54.7031 44.2969 53.4375 42.75 53.4375C41.2031 53.4375 39.9375 54.7031 39.9375 56.25V62.3391L36.2672 54.9984Z" fill="white"/>
</g>
<defs>
<clipPath id="clip0_28_189">
<rect width="81" height="72" fill="white"/>
</clipPath>
</defs>
</svg>
