<svg width="71" height="71" viewBox="0 0 71 71" fill="none" xmlns="http://www.w3.org/2000/svg">
<path d="M39.0418 24.8749H31.9585V17.7916H39.0418M39.0418 53.2083H31.9585V31.9583H39.0418M35.5002 0.083252C30.8492 0.083252 26.2437 0.999331 21.9468 2.77919C17.6498 4.55904 13.7455 7.16781 10.4568 10.4566C3.81488 17.0985 0.0834961 26.1068 0.0834961 35.4999C0.0834961 44.893 3.81488 53.9014 10.4568 60.5433C13.7455 63.832 17.6498 66.4408 21.9468 68.2207C26.2437 70.0005 30.8492 70.9166 35.5002 70.9166C44.8932 70.9166 53.9016 67.1852 60.5435 60.5433C67.1854 53.9014 70.9168 44.893 70.9168 35.4999C70.9168 30.8489 70.0008 26.2435 68.2209 21.9465C66.441 17.6496 63.8323 13.7453 60.5435 10.4566C57.2548 7.16781 53.3505 4.55904 49.0535 2.77919C44.7566 0.999331 40.1511 0.083252 35.5002 0.083252Z" fill="white"/>
</svg>
