<svg width="85" height="85" viewBox="0 0 85 85" fill="none" xmlns="http://www.w3.org/2000/svg">
<path fill-rule="evenodd" clip-rule="evenodd" d="M33.9519 5.85083C36.6878 4.89458 39.8842 3.98438 42.4997 3.98438C45.1152 3.98438 48.3116 4.89458 51.0475 5.85083C53.8985 6.84958 56.7142 8.07146 58.7294 8.9976C61.6636 10.3452 63.8471 13.0953 64.2012 16.5095C64.4279 18.6699 64.6351 21.8291 64.6351 26.1198C64.6351 30.4105 64.4279 33.5679 64.203 35.7301C64.1558 36.1775 64.079 36.6126 63.9728 37.0352C65.8641 37.3787 67.8509 37.9844 69.6395 38.6113C72.4923 39.61 75.3097 40.8319 77.3231 41.758C80.2574 43.1056 82.4408 45.8557 82.795 49.2699C83.0217 51.4303 83.2288 54.5895 83.2288 58.8802C83.2288 63.1709 83.0217 66.3283 82.7968 68.4905C82.4426 71.9047 80.2574 74.653 77.3231 76.0024C75.3097 76.9285 72.4923 78.1504 69.6412 79.1492C66.9053 80.1054 63.7089 81.0156 61.0934 81.0156C58.4779 81.0156 55.2816 80.1072 52.5456 79.1492C49.6946 78.1504 46.8789 76.9285 44.8637 76.0024C44.0056 75.6091 43.2093 75.0931 42.4997 74.4706C41.7949 75.0904 40.998 75.6075 40.1356 76.0024C38.1222 76.9285 35.3048 78.1504 32.4537 79.1492C29.7178 80.1054 26.5214 81.0156 23.9059 81.0156C21.2904 81.0156 18.094 80.1072 15.3581 79.1492C12.5071 78.1504 9.69145 76.9285 7.67624 76.0024C4.74197 74.6548 2.55853 71.9047 2.20436 68.4905C1.97592 66.3301 1.77051 63.1709 1.77051 58.8802C1.77051 54.5895 1.9777 51.4321 2.20259 49.2699C2.55676 45.8557 4.74197 43.1074 7.67624 41.758C9.68967 40.8319 12.5071 39.61 15.3581 38.6113C17.1467 37.9861 19.1353 37.3805 21.0283 37.0352C20.9191 36.6065 20.8421 36.1703 20.7981 35.7301C20.5714 33.5697 20.3643 30.4105 20.3643 26.1198C20.3643 21.8291 20.5714 18.6717 20.7963 16.5095C21.1505 13.0953 23.3357 10.347 26.27 8.9976C28.2834 8.07146 31.1008 6.84958 33.9519 5.85083ZM46.0413 58.8802C46.0413 62.9425 46.2379 65.8573 46.4362 67.7592C46.5106 68.4852 46.9763 69.1776 47.8228 69.5654C49.7353 70.4455 52.3278 71.5665 54.8867 72.4625C55.8394 72.7972 56.7354 73.0788 57.5518 73.3054V58.0479C56.8611 57.8407 56.1351 57.5946 55.3949 57.3254C53.2174 56.5143 51.0676 55.6307 48.9491 54.6763C47.9857 54.2477 47.0489 53.8209 46.1759 53.4154C46.0834 55.2355 46.0385 57.0578 46.0413 58.8802ZM64.6351 58.0497V73.3054C65.4514 73.0788 66.3475 72.7972 67.302 72.4625C69.8591 71.5682 72.4516 70.4455 74.3641 69.5672C75.2105 69.1776 75.6745 68.4852 75.7506 67.7592C75.9489 65.8555 76.1455 62.9425 76.1455 58.8802C76.1455 56.7499 76.0924 54.9348 76.0109 53.4172C75.1379 53.8227 74.2011 54.2495 73.2378 54.678C71.1192 55.6325 68.9694 56.5161 66.792 57.3272C66.0535 57.5964 65.3257 57.8425 64.6351 58.0497ZM38.958 58.8802C38.958 56.7499 38.9049 54.9348 38.8234 53.4172C37.9504 53.8227 37.0136 54.2495 36.0503 54.678C33.9317 55.6325 31.7819 56.5161 29.6045 57.3272C28.866 57.5964 28.1382 57.8425 27.4476 58.0497V73.3054C28.2639 73.0788 29.16 72.7972 30.1127 72.4625C32.6715 71.5682 35.2658 70.4455 37.1783 69.5672C38.023 69.1776 38.4887 68.4852 38.5631 67.7592C38.7614 65.8555 38.958 62.9425 38.958 58.8802ZM18.2074 57.3272C18.9458 57.5964 19.6736 57.8425 20.3643 58.0497V73.3054C19.4669 73.0537 18.578 72.7726 17.6992 72.4625C15.1403 71.5682 12.546 70.4455 10.6335 69.5672C9.78884 69.1776 9.32311 68.4852 9.24874 67.7592C9.04863 65.8555 8.85384 62.9425 8.85384 58.8802C8.85384 56.7499 8.90697 54.9348 8.98843 53.4172C9.86145 53.8227 10.7982 54.2495 11.7615 54.678C13.8801 55.6325 16.0299 56.5161 18.2074 57.3272ZM27.5822 20.6568C27.4897 22.4763 27.4448 24.2979 27.4476 26.1198C27.4476 30.1821 27.6442 33.0969 27.8425 34.9988C27.9169 35.7248 28.3826 36.4172 29.2291 36.805C31.1416 37.6851 33.7341 38.806 36.2929 39.7021C37.2456 40.0368 38.1417 40.3183 38.958 40.545V25.2875C38.2674 25.0803 37.5413 24.8342 36.8011 24.565C34.6237 23.7539 32.4739 22.8703 30.3553 21.9158C29.392 21.4873 28.4552 21.0605 27.5822 20.655M48.7082 39.7003C47.752 40.035 46.8577 40.3166 46.0413 40.5432V25.2875C46.732 25.0803 47.458 24.8342 48.1982 24.565C50.3757 23.7539 52.5255 22.8703 54.6441 21.9158C55.6074 21.4873 56.5442 21.0605 57.4172 20.655C57.4986 22.1726 57.5518 23.9877 57.5518 26.118C57.5518 30.1803 57.3552 33.0951 57.1569 34.997C57.0825 35.723 56.6168 36.4154 55.7703 36.8032C53.4603 37.8742 51.1033 38.8409 48.7064 39.7003" fill="white"/>
</svg>
