<svg width="85" height="75" viewBox="0 0 85 75" fill="none" xmlns="http://www.w3.org/2000/svg">
<path d="M22.4453 14.4902L18.1123 26.875H66.8877L62.5547 14.4902C61.8076 12.3652 59.7988 10.9375 57.541 10.9375H27.459C25.2012 10.9375 23.1924 12.3652 22.4453 14.4902ZM6.57422 27.6719L12.418 10.9873C14.6592 4.5957 20.6855 0.3125 27.459 0.3125H57.541C64.3145 0.3125 70.3408 4.5957 72.582 10.9873L78.4258 27.6719C82.2773 29.2656 85 33.0674 85 37.5V69.375C85 72.3135 82.626 74.6875 79.6875 74.6875H74.375C71.4365 74.6875 69.0625 72.3135 69.0625 69.375V64.0625H15.9375V69.375C15.9375 72.3135 13.5635 74.6875 10.625 74.6875H5.3125C2.37402 74.6875 0 72.3135 0 69.375V37.5C0 33.0674 2.72266 29.2656 6.57422 27.6719ZM21.25 45.4688C21.25 44.0598 20.6903 42.7085 19.694 41.7122C18.6977 40.716 17.3465 40.1562 15.9375 40.1562C14.5285 40.1562 13.1773 40.716 12.181 41.7122C11.1847 42.7085 10.625 44.0598 10.625 45.4688C10.625 46.8777 11.1847 48.229 12.181 49.2253C13.1773 50.2215 14.5285 50.7812 15.9375 50.7812C17.3465 50.7812 18.6977 50.2215 19.694 49.2253C20.6903 48.229 21.25 46.8777 21.25 45.4688ZM69.0625 50.7812C70.4715 50.7812 71.8227 50.2215 72.819 49.2253C73.8153 48.229 74.375 46.8777 74.375 45.4688C74.375 44.0598 73.8153 42.7085 72.819 41.7122C71.8227 40.716 70.4715 40.1562 69.0625 40.1562C67.6535 40.1562 66.3023 40.716 65.306 41.7122C64.3097 42.7085 63.75 44.0598 63.75 45.4688C63.75 46.8777 64.3097 48.229 65.306 49.2253C66.3023 50.2215 67.6535 50.7812 69.0625 50.7812Z" fill="white"/>
</svg>
