<svg width="77" height="74" viewBox="0 0 77 74" fill="none" xmlns="http://www.w3.org/2000/svg">
<path fill-rule="evenodd" clip-rule="evenodd" d="M72.146 23.1041C72.146 18.1316 72.146 15.6418 70.9525 13.8568C70.4355 13.083 69.7712 12.4187 68.9975 11.9018C67.4356 10.857 65.3354 10.726 61.5068 10.7118C61.5186 11.746 61.5234 12.8203 61.521 13.9347V18.677H65.0627C65.7671 18.677 66.4428 18.9569 66.9409 19.455C67.4391 19.9531 67.7189 20.6288 67.7189 21.3333C67.7189 22.0377 67.4391 22.7134 66.9409 23.2115C66.4428 23.7096 65.7671 23.9895 65.0627 23.9895H61.521V29.302H65.0627C65.7671 29.302 66.4428 29.5819 66.9409 30.08C67.4391 30.5781 67.7189 31.2538 67.7189 31.9583C67.7189 32.6627 67.4391 33.3384 66.9409 33.8365C66.4428 34.3346 65.7671 34.6145 65.0627 34.6145H61.521V39.927H65.0627C65.7671 39.927 66.4428 40.2069 66.9409 40.705C67.4391 41.2031 67.7189 41.8788 67.7189 42.5833C67.7189 43.2877 67.4391 43.9634 66.9409 44.4615C66.4428 44.9596 65.7671 45.2395 65.0627 45.2395H61.521V68.2603H56.2085V14.2499C56.2085 7.57034 56.2085 4.23409 54.1331 2.15867C52.0577 0.0832517 48.7214 0.083252 42.0418 0.083252H34.9585C28.2789 0.083252 24.9427 0.0832517 22.8672 2.15867C20.7918 4.23409 20.7918 7.57034 20.7918 14.2499V68.2603H15.4793V45.2395H11.9377C11.2332 45.2395 10.5576 44.9596 10.0594 44.4615C9.56127 43.9634 9.28141 43.2877 9.28141 42.5833C9.28141 41.8788 9.56127 41.2031 10.0594 40.705C10.5576 40.2069 11.2332 39.927 11.9377 39.927H15.4793V34.6145H11.9377C11.2332 34.6145 10.5576 34.3346 10.0594 33.8365C9.56127 33.3384 9.28141 32.6627 9.28141 31.9583C9.28141 31.2538 9.56127 30.5781 10.0594 30.08C10.5576 29.5819 11.2332 29.302 11.9377 29.302H15.4793V23.9895H11.9377C11.2332 23.9895 10.5576 23.7096 10.0594 23.2115C9.56127 22.7134 9.28141 22.0377 9.28141 21.3333C9.28141 20.6288 9.56127 19.9531 10.0594 19.455C10.5576 18.9569 11.2332 18.677 11.9377 18.677H15.4793V13.9312C15.477 12.8214 15.4817 11.7471 15.4935 10.7083C11.665 10.726 9.56475 10.857 8.00287 11.9018C7.22912 12.4187 6.5648 13.083 6.04787 13.8568C4.85433 15.6418 4.85433 18.1316 4.85433 23.1041V68.2603H3.0835C2.37901 68.2603 1.70339 68.5402 1.20524 69.0383C0.7071 69.5365 0.427246 70.2121 0.427246 70.9166C0.427246 71.6211 0.7071 72.2967 1.20524 72.7948C1.70339 73.293 2.37901 73.5728 3.0835 73.5728H73.9168C74.6213 73.5728 75.2969 73.293 75.7951 72.7948C76.2932 72.2967 76.5731 71.6211 76.5731 70.9166C76.5731 70.2121 76.2932 69.5365 75.7951 69.0383C75.2969 68.5402 74.6213 68.2603 73.9168 68.2603H72.146V23.1041ZM38.5002 8.052C39.2046 8.052 39.8803 8.33186 40.3784 8.83C40.8766 9.32814 41.1564 10.0038 41.1564 10.7083V15.1353H45.5835C46.288 15.1353 46.9636 15.4152 47.4618 15.9133C47.9599 16.4115 48.2397 17.0871 48.2397 17.7916C48.2397 18.4961 47.9599 19.1717 47.4618 19.6698C46.9636 20.168 46.288 20.4478 45.5835 20.4478H41.1564V24.8749C41.1564 25.5794 40.8766 26.255 40.3784 26.7532C39.8803 27.2513 39.2046 27.5312 38.5002 27.5312C37.7957 27.5312 37.1201 27.2513 36.6219 26.7532C36.1238 26.255 35.8439 25.5794 35.8439 24.8749V20.4478H31.4168C30.7123 20.4478 30.0367 20.168 29.5386 19.6698C29.0404 19.1717 28.7606 18.4961 28.7606 17.7916C28.7606 17.0871 29.0404 16.4115 29.5386 15.9133C30.0367 15.4152 30.7123 15.1353 31.4168 15.1353H35.8439V10.7083C35.8439 10.0038 36.1238 9.32814 36.6219 8.83C37.1201 8.33186 37.7957 8.052 38.5002 8.052ZM28.7606 35.4999C28.7606 34.7954 29.0404 34.1198 29.5386 33.6217C30.0367 33.1235 30.7123 32.8437 31.4168 32.8437H45.5835C46.288 32.8437 46.9636 33.1235 47.4618 33.6217C47.9599 34.1198 48.2397 34.7954 48.2397 35.4999C48.2397 36.2044 47.9599 36.88 47.4618 37.3782C46.9636 37.8763 46.288 38.1562 45.5835 38.1562H31.4168C30.7123 38.1562 30.0367 37.8763 29.5386 37.3782C29.0404 36.88 28.7606 36.2044 28.7606 35.4999ZM28.7606 46.1249C28.7606 45.4204 29.0404 44.7448 29.5386 44.2467C30.0367 43.7485 30.7123 43.4687 31.4168 43.4687H45.5835C46.288 43.4687 46.9636 43.7485 47.4618 44.2467C47.9599 44.7448 48.2397 45.4204 48.2397 46.1249C48.2397 46.8294 47.9599 47.505 47.4618 48.0032C46.9636 48.5013 46.288 48.7812 45.5835 48.7812H31.4168C30.7123 48.7812 30.0367 48.5013 29.5386 48.0032C29.0404 47.505 28.7606 46.8294 28.7606 46.1249ZM38.5002 57.6353C39.2046 57.6353 39.8803 57.9152 40.3784 58.4133C40.8766 58.9115 41.1564 59.5871 41.1564 60.2916V68.2603H35.8439V60.2916C35.8439 59.5871 36.1238 58.9115 36.6219 58.4133C37.1201 57.9152 37.7957 57.6353 38.5002 57.6353Z" fill="white"/>
</svg>
