<svg width="71" height="78" viewBox="0 0 71 78" fill="none" xmlns="http://www.w3.org/2000/svg">
<path d="M35.4237 0V77.9344H38.9654V60.2225H49.594V77.9344H70.851V0H35.4237ZM56.6808 3.54167V10.625H49.5975V3.54167H56.6808ZM56.6808 21.2535H49.5975V14.1702H56.6808V21.2535ZM56.6808 31.8821H49.5975V24.7987H56.6808V31.8821ZM56.6808 42.5071H49.5975V35.4238H56.6808V42.5071ZM56.6808 53.1356H49.5975V46.0523H56.6808V53.1356ZM38.9654 3.54167H46.0487V10.625H38.9654V3.54167ZM38.9654 14.1667H46.0487V21.2535H38.9654V14.1667ZM38.9654 24.7987H46.0487V31.8821H38.9654V24.7987ZM38.9654 35.4238H46.0487V42.5071H38.9654V35.4238ZM38.9654 46.0523H46.0487V53.1356H38.9654V46.0523ZM67.3058 70.851H53.1392V60.2225H67.3058V70.851ZM67.3058 53.1356H60.2225V46.0523H67.3058V53.1356ZM67.3058 42.5106H60.2225V35.4273H67.3058V42.5106ZM67.3058 31.8821H60.2225V24.7987H67.3058V31.8821ZM67.3058 21.2571H60.2225V14.1667H67.3058V21.2571ZM67.3058 10.6285H60.2225V3.54521H67.3058V10.6285ZM0 24.7952V77.9344H10.625V63.7642H21.2535V77.9308H31.8821V24.7987L0 24.7952ZM3.54167 28.3369H14.1667V35.4238H3.54167V28.3369ZM3.54167 38.9654H14.1667V46.0488H3.54167V38.9654ZM3.54167 56.6773V49.594H14.1667V56.6773H3.54167ZM28.3404 56.6773H17.7154V49.594H28.3404V56.6773ZM28.3404 46.0523H17.7154V38.969H28.3404V46.0523ZM28.3404 35.4273H17.7154V28.3369H28.3404V35.4273Z" fill="white"/>
</svg>
