<svg width="35" height="34" viewBox="0 0 35 34" fill="none" xmlns="http://www.w3.org/2000/svg">
<g clip-path="url(#clip0_124_1575)">
<path d="M17.4998 11.3335C15.9527 11.3335 14.469 11.9305 13.375 12.9932C12.2811 14.0559 11.6665 15.4973 11.6665 17.0002C11.6665 18.5031 12.2811 19.9444 13.375 21.0071C14.469 22.0698 15.9527 22.6668 17.4998 22.6668C19.0469 22.6668 20.5307 22.0698 21.6246 21.0071C22.7186 19.9444 23.3332 18.5031 23.3332 17.0002C23.3332 15.4973 22.7186 14.0559 21.6246 12.9932C20.5307 11.9305 19.0469 11.3335 17.4998 11.3335Z" fill="#1F2B44"/>
<path fill-rule="evenodd" clip-rule="evenodd" d="M10.5 0C7.71523 0 5.04451 1.07464 3.07538 2.98751C1.10625 4.90038 0 7.49479 0 10.2L0 23.8C0 26.5052 1.10625 29.0996 3.07538 31.0125C5.04451 32.9254 7.71523 34 10.5 34H24.5C27.2848 34 29.9555 32.9254 31.9246 31.0125C33.8937 29.0996 35 26.5052 35 23.8V10.2C35 7.49479 33.8937 4.90038 31.9246 2.98751C29.9555 1.07464 27.2848 0 24.5 0L10.5 0ZM9.33333 17C9.33333 14.8959 10.1937 12.8781 11.7253 11.3903C13.2568 9.9025 15.3341 9.06667 17.5 9.06667C19.6659 9.06667 21.7432 9.9025 23.2747 11.3903C24.8063 12.8781 25.6667 14.8959 25.6667 17C25.6667 19.1041 24.8063 21.1219 23.2747 22.6097C21.7432 24.0975 19.6659 24.9333 17.5 24.9333C15.3341 24.9333 13.2568 24.0975 11.7253 22.6097C10.1937 21.1219 9.33333 19.1041 9.33333 17ZM25.6667 9.06667H28V6.8H25.6667V9.06667Z" fill="#1F2B44"/>
</g>
<defs>
<clipPath id="clip0_124_1575">
<rect width="35" height="34" fill="white"/>
</clipPath>
</defs>
</svg>
