<svg width="36" height="33" viewBox="0 0 36 33" fill="none" xmlns="http://www.w3.org/2000/svg">
<path d="M31.4167 0.375C32.4333 0.375 33.4084 0.752529 34.1272 1.42453C34.8461 2.09654 35.25 3.00797 35.25 3.95833V29.0417C35.25 29.992 34.8461 30.9035 34.1272 31.5755C33.4084 32.2475 32.4333 32.625 31.4167 32.625H4.58333C3.56667 32.625 2.59165 32.2475 1.87276 31.5755C1.15387 30.9035 0.75 29.992 0.75 29.0417V3.95833C0.75 3.00797 1.15387 2.09654 1.87276 1.42453C2.59165 0.752529 3.56667 0.375 4.58333 0.375H31.4167ZM30.4583 28.1458V18.65C30.4583 17.1009 29.8 15.6153 28.6282 14.5199C27.4564 13.4245 25.8672 12.8092 24.21 12.8092C22.5808 12.8092 20.6833 13.7408 19.7633 15.1383V13.1496H14.4158V28.1458H19.7633V19.3129C19.7633 17.9333 20.9517 16.8046 22.4275 16.8046C23.1392 16.8046 23.8217 17.0689 24.3249 17.5393C24.8281 18.0097 25.1108 18.6477 25.1108 19.3129V28.1458H30.4583ZM8.18667 10.3367C9.04066 10.3367 9.85968 10.0195 10.4636 9.45506C11.0674 8.89057 11.4067 8.12497 11.4067 7.32667C11.4067 5.66042 9.96917 4.29875 8.18667 4.29875C7.32759 4.29875 6.50369 4.61776 5.89623 5.18561C5.28877 5.75345 4.9475 6.52361 4.9475 7.32667C4.9475 8.99292 6.40417 10.3367 8.18667 10.3367ZM10.8508 28.1458V13.1496H5.54167V28.1458H10.8508Z" fill="#1F2B44"/>
</svg>
