<svg width="34" height="34" viewBox="0 0 34 34" fill="none" xmlns="http://www.w3.org/2000/svg">
<path d="M19.2865 0.489832C15.3001 -0.0564136 11.2505 0.85752 7.88512 3.06301C4.5197 5.2685 2.06546 8.61672 0.975221 12.4899C-0.115017 16.3631 0.232314 20.4999 1.95313 24.1371C3.67395 27.7743 6.65213 30.6664 10.3382 32.2798C10.2391 31.0002 10.3301 29.7129 10.6082 28.4598C10.9165 27.0615 12.7682 19.3548 12.7682 19.3548C12.3975 18.529 12.2131 17.6316 12.2282 16.7265C12.2282 14.2515 13.6565 12.4048 15.4332 12.4048C15.7524 12.4002 16.0688 12.4643 16.361 12.5929C16.6532 12.7214 16.9142 12.9114 17.1264 13.1499C17.3387 13.3883 17.497 13.6697 17.5908 13.9748C17.6846 14.2799 17.7115 14.6017 17.6699 14.9182C17.6699 16.4182 16.7065 18.6882 16.2032 20.8182C16.1037 21.2088 16.0974 21.6173 16.1848 22.0109C16.2721 22.4044 16.4507 22.7719 16.7061 23.0837C16.9615 23.3956 17.2867 23.6431 17.6552 23.8062C18.0238 23.9694 18.4256 24.0437 18.8282 24.0232C21.9899 24.0232 24.1115 19.9715 24.1115 15.1882C24.1115 11.5198 21.6832 8.7765 17.2065 8.7765C16.1356 8.73489 15.0674 8.91133 14.0668 9.29511C13.0662 9.67889 12.154 10.262 11.3856 11.0091C10.6171 11.7561 10.0086 12.6515 9.59673 13.641C9.18491 14.6304 8.97844 15.6932 8.98986 16.7648C8.94214 17.9537 9.3257 19.1198 10.0699 20.0482C10.2089 20.152 10.3105 20.2982 10.3592 20.4647C10.4079 20.6313 10.4011 20.8091 10.3399 20.9715C10.2632 21.2782 10.0699 22.0098 9.9932 22.2798C9.97703 22.3707 9.93977 22.4565 9.88443 22.5303C9.82908 22.6042 9.75719 22.664 9.67452 22.705C9.59185 22.746 9.50072 22.7671 9.40844 22.7664C9.31616 22.7658 9.22532 22.7436 9.1432 22.7015C6.83653 21.7782 5.74986 19.2398 5.74986 16.3415C5.74986 11.5965 9.7232 5.9165 17.6732 5.9165C23.9999 5.9165 28.2049 10.5448 28.2049 15.4948C28.2049 22.0098 24.5782 26.9082 19.2165 26.9082C18.4152 26.9339 17.6202 26.7571 16.9053 26.3942C16.1904 26.0312 15.5786 25.4937 15.1265 24.8315C15.1265 24.8315 14.1615 28.6915 13.9732 29.4215C13.5859 30.6829 13.0136 31.8798 12.2749 32.9732C13.8132 33.4398 15.4115 33.6732 17.0182 33.6665C19.2072 33.6678 21.375 33.2375 23.3976 32.4001C25.4201 31.5627 27.2576 30.3346 28.8051 28.7863C30.3525 27.2379 31.5794 25.3997 32.4156 23.3766C33.2518 21.3536 33.6808 19.1855 33.6782 16.9965C33.6772 12.971 32.2194 9.0819 29.5739 6.04771C26.9285 3.01352 23.2743 1.03931 19.2865 0.489832Z" fill="#1F2B44"/>
</svg>
